<svg version="1.1" id="Layer_1" xmlns="http://www.w3.org/2000/svg" xmlns:xlink="http://www.w3.org/1999/xlink" x="0px" y="0px"
	 width="210px" height="90px" viewBox="0 0 1769 600" enable-background="new 0 0 1769 600" xml:space="preserve">
	<rect x="278.102" y="248.157" fill="#aaa" width="26.389" height="108.905"/>
	<polygon fill="#aaa" points="403.908,357.062 338.078,248.157 368.144,248.157 414.178,327.241 457.629,248.157 485.152,248.157
		422.167,357.062 "/>
	<rect x="518.49" y="248.157" fill="#aaa" width="26.393" height="108.905"/>
	<path fill="#aaa" d="M715.532,255.176c-3.936-3.435-9.576-6.973-20.531-6.973h-84.067c-10.987,0-16.621,3.538-20.553,6.973
		c-3.953,3.423-7.74,8.478-7.74,18.769v57.426c0,10.116,3.787,15.137,7.74,18.651c3.932,3.514,9.565,7.086,20.553,7.086h84.067
		c10.794,0,16.386-3.572,20.413-7.086c4.045-3.515,7.858-8.535,7.858-18.651v-57.426
		C723.272,263.653,719.485,258.599,715.532,255.176z M696.604,327.661c0,4.862-5.085,8.797-11.354,8.797h-64.594
		c-6.269,0-11.353-3.935-11.353-8.797v-50.598c0-4.853,5.084-8.793,11.353-8.793h64.594c6.269,0,11.354,3.94,11.354,8.793V327.661z"
		/>
	<path fill="#aaa" d="M100.018,248.193v108.914h-0.009h112.369c10.794,0,16.386-3.572,20.413-7.086
		c4.045-3.515,7.858-8.535,7.858-18.651v-57.426c0-10.291-3.787-15.346-7.74-18.769c-3.936-3.435-9.576-6.973-20.531-6.973h-112.36
		V248.193z M213.981,327.661c0,4.862-5.085,8.797-11.353,8.797h-75.954l0.007-8.797v-50.598l0.025-8.793h75.922
		c6.268,0,11.353,3.94,11.353,8.793V327.661z"/>
</svg>