<?xml version="1.0" encoding="utf-8"?>
<!-- Generator: Adobe Illustrator 19.0.0, SVG Export Plug-In . SVG Version: 6.00 Build 0)  -->
<!DOCTYPE svg PUBLIC "-//W3C//DTD SVG 1.1//EN" "http://www.w3.org/Graphics/SVG/1.1/DTD/svg11.dtd">
<svg version="1.1" id="Layer_1" xmlns="http://www.w3.org/2000/svg" xmlns:xlink="http://www.w3.org/1999/xlink" x="0px" y="0px"
	 viewBox="-431 388.4 336.8 24.6" style="enable-background:new -431 388.4 336.8 24.6;" xml:space="preserve">
<style type="text/css">
	.st0{display:none;}
	.st1{display:inline;}
	.st2{fill:#666666;}
</style>
<g id="Layer_1_1_" class="st0">
	<rect x="-1332.5" y="1105.3" class="st1" width="576.5" height="283.5"/>
</g>
<g>
	<g>
		<path class="st2" d="M-252.8,405.9h-9.2l-2.4,7.1h-3.5l8.8-24.5h3.5l8.8,24.5h-3.5L-252.8,405.9z M-257.5,391.8c0,0-0.6,2.2-1,3.4
			l-2.7,7.7h7.5l-2.7-7.7C-256.9,394-257.3,391.8-257.5,391.8L-257.5,391.8z"/>
		<path class="st2" d="M-234.8,388.4h3.4v21.5h11v2.9h-14.4V388.4z"/>
		<path class="st2" d="M-208.4,388.4h8.1c7.5,0,12.4,4.5,12.4,12.2s-4.9,12.2-12.4,12.2h-8.1V388.4z M-200.4,409.9
			c5.5,0,9.2-3.3,9.2-9.3s-3.7-9.2-9.2-9.2h-4.4v18.5H-200.4z"/>
		<path class="st2" d="M-174.4,388.4h7.5c2.6,0,3.7,0.2,4.5,0.6c2.4,1,4.2,3.4,4.2,6.6s-1.7,5.8-4.4,6.6v0.1c0,0,0.2,0.4,0.7,1.1
			l5.3,9.5h-3.9l-5.1-9.8h-5.3v9.8h-3.4v-24.5L-174.4,388.4L-174.4,388.4z M-166,400.1c2.7,0,4.3-1.7,4.3-4.4c0-1.8-0.7-3.1-2-3.8
			c-0.6-0.4-1.5-0.6-3.3-0.6h-3.9v8.8H-166z"/>
		<path class="st2" d="M-138.3,402.6l-8.2-14.1h3.9l4.5,8.1c0.7,1.3,1.5,3.1,1.5,3.1h0.1c0,0,0.7-1.7,1.5-3.1l4.5-8.1h3.9l-8.2,14.1
			V413h-3.4v-10.4H-138.3z"/>
		<path class="st2" d="M-113.9,388.4h3.4l10.9,15.9c0.9,1.3,2.1,3.5,2.1,3.5h0.1c0,0-0.2-2.2-0.2-3.5v-15.9h3.4v24.5h-3.3
			l-10.9-15.9c-0.9-1.3-2.1-3.5-2.1-3.5h-0.1c0,0,0.2,2.2,0.2,3.5v15.9h-3.4L-113.9,388.4L-113.9,388.4z"/>
	</g>
	<g>
		<rect x="-390.9" y="388.4" width="5.9" height="24.5"/>
		<polygon points="-362.5,412.9 -377.4,388.4 -370.6,388.4 -360.2,406.2 -350.4,388.4 -344.2,388.4 -358.4,412.9 		"/>
		<rect x="-336.7" y="388.4" width="5.9" height="24.5"/>
		<path d="M-292.3,390c-0.9-0.8-2.2-1.6-4.6-1.6h-18.9c-2.5,0-3.7,0.8-4.6,1.6c-0.9,0.8-1.7,1.9-1.7,4.2v12.9c0,2.3,0.9,3.4,1.7,4.2
			c0.9,0.8,2.2,1.6,4.6,1.6h18.9c2.4,0,3.7-0.8,4.6-1.6c0.9-0.8,1.8-1.9,1.8-4.2v-12.9C-290.5,391.9-291.4,390.7-292.3,390z
			 M-296.6,406.3c0,1.1-1.1,2-2.6,2h-14.5c-1.4,0-2.6-0.9-2.6-2v-11.4c0-1.1,1.1-2,2.6-2h14.5c1.4,0,2.6,0.9,2.6,2V406.3z"/>
		<path d="M-431,388.4v24.5l0,0h25.3c2.4,0,3.7-0.8,4.6-1.6c0.9-0.8,1.8-1.9,1.8-4.2v-12.9c0-2.3-0.9-3.5-1.7-4.2
			c-0.9-0.8-2.2-1.6-4.6-1.6L-431,388.4L-431,388.4z M-405.3,406.3c0,1.1-1.1,2-2.6,2H-425v-2v-11.4v-2h17.1c1.4,0,2.6,0.9,2.6,2
			V406.3z"/>
	</g>
</g>
</svg>
